<svg width="512" height="512" viewBox="0 0 512 512" fill="none" xmlns="http://www.w3.org/2000/svg">
<g clip-path="url(#clip0_312_222)">
<path d="M256 497C389.101 497 497 389.101 497 256C497 122.899 389.101 15 256 15C122.899 15 15 122.899 15 256C15 389.101 122.899 497 256 497Z" stroke="#E50303" stroke-width="30" stroke-miterlimit="10"/>
<path d="M256 155C239.431 155 226 141.569 226 125V105C226 88.431 239.431 75 256 75C272.569 75 286 88.431 286 105V125C286 141.569 272.569 155 256 155ZM360 155H152C135.431 155 122 168.431 122 185C122 201.569 135.431 215 152 215H206V270.06L164.896 378.427C159.02 393.919 166.815 411.24 182.307 417.116C197.799 422.992 215.12 415.197 220.996 399.705L255.401 309H256.599L291.004 399.706C296.88 415.198 314.202 422.993 329.693 417.117C345.185 411.241 352.98 393.919 347.104 378.428L306 270.06V215H360C376.569 215 390 201.569 390 185C390 168.431 376.569 155 360 155Z" stroke="#E50303" stroke-width="30" stroke-miterlimit="10"/>
</g>
<defs>
<clipPath id="clip0_312_222">
<rect width="512" height="512" fill="white"/>
</clipPath>
</defs>
</svg>
