<svg width="512" height="512" viewBox="0 0 512 512" fill="none" xmlns="http://www.w3.org/2000/svg">
<g clip-path="url(#clip0_312_233)">
<path d="M245.353 274.924C245.353 274.924 216.811 219.926 217.865 179.738C218.634 151.019 283.388 122.631 308.81 81.4095C334.188 40.1659 305.646 0 305.646 0C305.646 0 311.996 29.6189 295.077 60.2494C278.158 90.9236 215.711 108.919 191.431 161.786C167.152 214.653 245.353 274.924 245.353 274.924Z" fill="#FF4444"/>
<path d="M352.185 107.842C352.185 107.842 254.911 144.867 254.911 187.142C254.911 229.461 281.322 243.195 285.585 256.928C289.805 270.705 278.181 293.952 278.181 293.952C278.181 293.952 316.238 267.519 309.866 236.846C303.515 206.171 273.918 196.635 290.859 166.005C302.175 145.46 352.185 107.842 352.185 107.842Z" fill="#FF4444"/>
<path d="M234.806 330.801C324.697 327.593 357.481 299.226 357.481 299.226C299.341 315.069 144.938 314.036 143.861 302.412C142.829 290.789 191.433 281.252 191.433 281.252C191.433 281.252 115.319 281.252 108.969 300.28C102.618 319.309 144.981 333.943 234.806 330.801ZM364.863 375.362C364.863 375.362 452.842 356.598 444.141 308.806C433.594 250.623 372.245 283.405 372.245 283.405C372.245 283.405 415.641 283.405 419.838 309.817C424.08 336.25 364.863 375.362 364.863 375.362ZM321.511 350.005C321.511 350.005 299.34 355.828 266.491 359.519C222.458 364.463 169.217 360.552 164.977 353.146C160.802 345.742 172.381 341.523 172.381 341.523C119.493 354.223 148.431 376.394 210.416 380.657C263.546 384.282 342.626 364.793 342.626 364.793L321.511 350.005ZM185.125 396.192C185.125 396.192 161.131 396.874 159.725 409.574C158.34 422.187 174.491 433.524 233.729 437.04C292.945 440.556 334.562 420.846 334.562 420.846L307.777 404.587C307.777 404.587 290.836 408.146 264.753 411.662C238.65 415.2 185.123 408.827 183.015 403.928C180.862 398.982 185.125 396.192 185.125 396.192Z" fill="#FF4444"/>
<path d="M415.598 453.299C424.761 443.411 412.763 435.655 412.763 435.655C412.763 435.655 416.983 440.599 411.401 446.224C405.754 451.849 354.272 465.934 271.786 470.175C189.322 474.415 99.7828 462.418 96.9479 451.849C94.2016 441.28 142.805 432.843 142.805 432.843C137.18 433.546 69.5037 434.952 67.3503 453.299C65.2407 471.602 96.9479 486.412 223.884 486.412C350.757 486.39 406.479 463.121 415.598 453.299Z" fill="#FF4444"/>
<path d="M366.269 494.872C310.568 506.121 141.421 499.025 141.421 499.025C141.421 499.025 251.352 525.128 376.838 503.288C436.823 492.828 440.317 463.802 440.317 463.802C440.317 463.802 421.971 483.556 366.269 494.872Z" fill="#FF4444"/>
</g>
<defs>
<clipPath id="clip0_312_233">
<rect width="512" height="512" fill="white"/>
</clipPath>
</defs>
</svg>
