<svg width="512" height="512" viewBox="0 0 512 512" fill="none" xmlns="http://www.w3.org/2000/svg">
<path d="M317.32 328.64C332.969 354.191 353.329 372.973 389.338 372.973C419.587 372.973 438.911 357.854 438.911 336.964C438.911 311.931 419.058 303.064 385.762 288.501L367.509 280.67C314.829 258.226 279.83 230.109 279.83 170.67C279.83 115.917 321.549 74.2362 386.746 74.2362C433.163 74.2362 466.533 90.3902 490.579 132.689L433.731 169.191C421.214 146.747 407.711 137.905 386.746 137.905C365.364 137.905 351.81 151.471 351.81 169.191C351.81 191.093 365.376 199.959 396.697 213.524L414.948 221.342C476.977 247.941 511.998 275.058 511.998 336.027C511.998 401.755 460.365 437.764 391.024 437.764C323.224 437.764 279.422 405.454 257.989 363.107L317.32 328.64ZM59.4266 334.966C70.895 355.314 81.3285 372.516 106.411 372.516C130.396 372.516 145.527 363.131 145.527 326.643V78.4044H218.531V327.628C218.531 403.221 174.212 437.627 109.518 437.627C51.0659 437.627 17.2162 407.377 0 370.943L59.4266 334.966Z" fill="#FF4444"/>
</svg>
