<svg width="512" height="512" viewBox="0 0 512 512" fill="none" xmlns="http://www.w3.org/2000/svg">
<path d="M456 16H56C33.92 16 16 33.92 16 56V392C16 414.08 33.92 432 56 432H333.12C337.52 432 341.12 428.4 341.12 424C341.12 419.6 337.52 416 333.12 416H56C42.8 416 32 405.2 32 392V80H480V392C480 396.8 478.56 401.44 475.92 405.36C473.44 409.04 474.4 414 478.08 416.48C481.76 418.96 486.72 418 489.2 414.32C493.68 407.68 496 400 496 392V56C496 33.92 478.08 16 456 16ZM32 56C32 42.8 42.8 32 56 32H352V64H32V56ZM368 64V32H456C469.2 32 480 42.8 480 56V64H368Z" fill="#E50303"/>
<path d="M405.76 375.76C395.04 366.64 379.76 365.76 368 372.64L346.16 350.8C364.64 329.68 375.92 302.16 375.92 271.92C375.92 259.92 374.16 248.16 370.72 236.88C369.92 233.28 366.72 230.64 362.88 230.64C358.48 230.64 354.88 234.24 354.88 238.72C354.88 239.52 355.04 240.32 355.28 241.12C358.4 251.04 359.92 261.36 359.92 271.92C359.92 329.28 313.28 375.92 255.92 375.92C198.56 375.92 151.92 329.28 151.92 271.92C151.92 214.56 198.56 167.92 255.92 167.92C279.84 167.92 302.32 175.84 320.88 190.8C321.699 191.462 322.641 191.956 323.652 192.254C324.662 192.552 325.721 192.648 326.768 192.536C327.816 192.425 328.831 192.108 329.756 191.604C330.681 191.101 331.498 190.42 332.16 189.6C332.822 188.781 333.316 187.839 333.614 186.828C333.912 185.818 334.008 184.759 333.896 183.712C333.785 182.664 333.468 181.649 332.964 180.724C332.46 179.799 331.779 178.982 330.96 178.32C309.44 161.04 283.52 151.92 255.92 151.92C189.76 151.92 135.92 205.76 135.92 271.92C135.92 338.08 189.76 391.92 255.92 391.92C286.16 391.92 313.68 380.64 334.8 362.08L356.56 383.84C349.68 395.52 350.48 410.8 359.68 421.6L413.28 484.48C419.2 491.36 427.76 495.52 436.8 495.92H438.08C446.72 495.92 455.04 492.48 461.12 486.4L470.32 477.2C476.72 470.8 480.16 461.92 479.84 452.88C479.52 443.84 475.36 435.28 468.4 429.36L405.52 375.76H405.76ZM459.2 465.92L450 475.12C446.72 478.4 442.32 480.16 437.6 480C432.96 479.84 428.72 477.76 425.68 474.16L372.08 411.28C366.48 404.72 366.88 394.88 372.96 388.8C376.16 385.6 380.4 384 384.64 384C388.48 384 392.32 385.28 395.36 387.92L458.24 441.52C461.84 444.56 463.84 448.8 464.08 453.44C464.24 458.08 462.56 462.48 459.28 465.84L459.2 465.92Z" fill="#E50303"/>
<path d="M245.68 234.32C244.94 233.578 244.061 232.99 243.093 232.589C242.125 232.187 241.088 231.98 240.04 231.98C238.992 231.98 237.955 232.187 236.987 232.589C236.019 232.99 235.14 233.578 234.4 234.32L186.4 282.32C185.284 283.437 184.524 284.861 184.219 286.411C183.913 287.96 184.075 289.566 184.684 291.023C185.293 292.48 186.321 293.724 187.637 294.596C188.954 295.468 190.501 295.929 192.08 295.92C194.16 295.92 196.16 295.12 197.76 293.6L240.08 251.28L274.4 285.6C275.92 287.12 278.08 287.84 280.16 287.92C282.32 287.92 284.4 286.96 285.84 285.44L408 156.08V184C408 188.4 411.6 192 416 192C420.4 192 424 188.4 424 184V136C424 131.6 420.4 128 416 128H368C363.6 128 360 131.6 360 136C360 140.4 363.6 144 368 144H397.44L279.84 268.56L245.68 234.4V234.32Z" fill="#E50303"/>
</svg>
