<svg width="512" height="512" viewBox="0 0 512 512" fill="none" xmlns="http://www.w3.org/2000/svg">
<path d="M100.697 444.368V7.51465H471.421V464.407C471.421 486.541 453.477 504.485 431.342 504.485M431.342 504.485C409.208 504.485 391.264 486.541 391.264 464.407V444.368H40.5791V464.407C40.5791 486.541 58.5231 504.485 80.6574 504.485H431.342Z" stroke="#E50303" stroke-width="15.0294" stroke-miterlimit="10" stroke-dasharray="370.72 15.03"/>
<path d="M274.035 109.714H233.957V41.5812M163.82 117.73V49.5968H186.865C196.272 49.5968 203.898 57.2227 203.898 66.6301C203.898 76.0375 196.272 83.6634 186.865 83.6634H163.82M338.16 117.73V69.636C338.16 58.5684 329.189 49.5968 318.121 49.5968C307.054 49.5968 298.082 58.5684 298.082 69.636V117.73M298.082 95.6869H338.16M368.219 117.73V49.5968H369.221L407.295 109.714H408.297V41.5812M391.264 193.879V253.996M180.853 294.074V354.192M284.055 147.789L310.106 173.839M310.106 173.839L284.055 199.89M310.106 173.839H225.941M135.765 153.8H225.941V193.879H135.765V153.8ZM346.176 153.8H436.352V193.879H346.176V153.8Z" stroke="#E50303" stroke-width="15.0294" stroke-miterlimit="10"/>
<path d="M436.352 294.074H346.176V253.996H436.352V294.074Z" stroke="#E50303" stroke-width="15.0294" stroke-miterlimit="10"/>
<path d="M225.941 294.074H135.765V253.996H225.941V294.074Z" stroke="#E50303" stroke-width="15.0294" stroke-miterlimit="10"/>
<path d="M288.062 247.984L262.011 274.035M262.011 274.035L288.062 300.086M262.011 274.035H346.176M284.055 348.18L310.105 374.231M310.105 374.231L284.055 400.282M310.105 374.231H225.941M91.6788 474.427H76.6494M121.737 474.427H106.708M135.765 354.192H225.941V394.27H135.765V354.192ZM346.176 354.192H436.352V394.27H346.176V354.192Z" stroke="#E50303" stroke-width="15.0294" stroke-miterlimit="10"/>
</svg>
