<svg width="512" height="512" viewBox="0 0 512 512" fill="none" xmlns="http://www.w3.org/2000/svg">
<g clip-path="url(#clip0_312_255)">
<path d="M252.985 0.00394104C232.103 0.100941 212.162 1.88194 194.616 4.98694C142.927 14.1189 133.542 33.2319 133.542 68.4809V115.034H255.689V130.551H87.701C52.202 130.551 21.117 151.888 11.395 192.479C0.180021 239.005 -0.316978 268.039 11.395 316.62C20.078 352.781 40.813 378.547 76.312 378.547H118.309V322.74C118.309 282.423 153.192 246.861 194.616 246.861H316.621C350.583 246.861 377.694 218.898 377.694 184.791V68.4809C377.694 35.3789 349.768 10.5119 316.621 4.98694C295.638 1.49394 273.866 -0.093059 252.985 0.00394104ZM186.928 37.4459C199.545 37.4459 209.848 47.9179 209.848 60.7929C209.848 73.6229 199.545 83.9979 186.928 83.9979C174.266 83.9979 164.008 73.6229 164.008 60.7929C164.008 47.9169 174.266 37.4459 186.928 37.4459Z" fill="#FC3314"/>
<path d="M392.927 130.551V184.791C392.927 226.843 357.275 262.236 316.621 262.236H194.616C161.197 262.236 133.542 290.838 133.542 324.306V440.616C133.542 473.718 162.327 493.189 194.616 502.686C233.281 514.055 270.359 516.11 316.621 502.686C347.372 493.783 377.694 475.865 377.694 440.616V394.063H255.689V378.545H438.768C474.267 378.545 487.496 353.784 499.842 316.618C512.595 278.356 512.052 241.561 499.842 192.477C491.069 157.137 474.313 130.549 438.768 130.549H392.927V130.551ZM324.309 425.099C336.971 425.099 347.229 435.474 347.229 448.304C347.229 461.18 336.971 471.652 324.309 471.652C311.692 471.652 301.389 461.18 301.389 448.304C301.388 435.474 311.691 425.099 324.309 425.099Z" fill="#FC3314"/>
</g>
<defs>
<clipPath id="clip0_312_255">
<rect width="512" height="512" fill="white"/>
</clipPath>
</defs>
</svg>
