<svg width="512" height="512" viewBox="0 0 512 512" fill="none" xmlns="http://www.w3.org/2000/svg">
<path d="M452.749 270.471C448.145 264.502 443.149 258.531 437.81 252.583C441.411 248.414 444.898 244.148 448.268 239.791C482.284 195.685 491.942 155.674 475.462 127.131C458.983 98.587 419.508 86.946 364.298 94.352C358.338 95.1593 352.403 96.142 346.501 97.299C344.501 91.4284 342.323 85.6197 339.97 79.881C318.78 28.369 288.959 0 256 0C223.041 0 193.22 28.369 172.031 79.881C169.679 85.6197 167.501 91.4284 165.5 97.299C159.598 96.1426 153.663 95.1598 147.703 94.352C92.4992 86.947 53.0192 98.587 36.5392 127.131C20.0592 155.675 29.7172 195.685 63.7332 239.791C67.1026 244.149 70.5899 248.415 74.1912 252.583C68.8512 258.531 63.8562 264.501 59.2522 270.471C25.2362 314.577 15.5782 354.588 32.0582 383.131C45.2992 406.065 73.3792 418.086 112.542 418.086C122.121 418.086 132.371 417.366 143.221 415.91C150.209 414.972 157.371 413.736 164.667 412.231C166.962 419.115 169.415 425.76 172.031 432.12C193.22 483.631 223.041 512 256 512C288.959 512 318.78 483.631 339.969 432.119C342.585 425.759 345.038 419.114 347.333 412.23C354.629 413.735 361.791 414.972 368.779 415.909C379.632 417.365 389.876 418.085 399.458 418.085C438.617 418.085 466.703 406.063 479.942 383.13C496.423 354.587 486.765 314.577 452.749 270.471ZM395.146 122.126C422.568 122.126 441.95 129.087 449.481 142.13C459.335 159.198 450.234 188.116 424.512 221.469C422.01 224.705 419.437 227.885 416.792 231.006C401.753 216.698 384.824 202.698 366.406 189.356C363.862 167.139 360.037 145.909 355.035 126.17C369.719 123.46 383.202 122.126 395.146 122.126ZM295.825 327.992C282.34 335.777 269.031 342.761 256.009 348.971C242.461 342.503 229.173 335.505 216.175 327.992C201.29 319.398 187.045 310.302 173.606 300.854C172.441 285.931 171.861 270.968 171.868 256C171.868 238.602 172.631 221.901 174.035 205.998C186.275 197.602 198.837 189.687 211.693 182.27C226.733 173.587 241.55 165.913 255.999 159.186C270.449 165.913 285.266 173.587 300.306 182.27C313.163 189.687 325.725 197.602 337.964 205.998C339.368 221.901 340.131 238.602 340.131 256C340.131 271.531 339.521 286.504 338.393 300.854C324.955 310.302 310.71 319.398 295.825 327.992ZM333.817 340.004C331.807 352.774 329.369 364.87 326.569 376.206C315.442 372.973 303.849 369.061 291.892 364.452C298.264 361.071 304.577 357.577 310.825 353.973C318.591 349.487 326.257 344.829 333.817 340.004ZM220.106 364.451C208.147 369.061 196.557 372.969 185.429 376.202C182.63 364.868 180.192 352.773 178.182 340.004C185.742 344.829 193.408 349.487 201.174 353.972C207.422 357.577 213.734 361.071 220.106 364.451ZM142.234 276.944C132.734 269.074 123.833 261.056 115.62 252.963C123.943 245.026 132.911 237.176 142.451 229.479C142.064 238.314 141.869 247.156 141.868 256C141.868 263.029 141.995 270.013 142.234 276.944ZM179.012 166.908C181.029 154.955 183.425 143.625 186.14 132.982C196.799 135.961 207.907 139.577 219.368 143.838C211.723 147.827 204.163 151.979 196.694 156.29C190.74 159.729 184.846 163.269 179.012 166.908ZM292.631 143.837C304.092 139.576 315.2 135.959 325.86 132.981C328.575 143.625 330.971 154.955 332.988 166.908C327.155 163.269 321.26 159.729 315.307 156.29C307.838 151.978 300.277 147.826 292.631 143.837ZM369.549 229.479C379.089 237.176 388.057 245.026 396.38 252.963C388.167 261.056 379.266 269.074 369.766 276.944C370.008 269.965 370.13 262.983 370.132 256C370.132 247.081 369.932 238.234 369.549 229.479ZM256 30C277.699 30 300.749 57.603 317.225 104.297C297.374 109.876 276.796 117.273 256 126.315C235.204 117.273 214.626 109.877 194.775 104.297C211.251 57.603 234.301 30 256 30ZM62.5192 142.131C70.0512 129.086 89.4242 122.127 116.854 122.127C128.797 122.127 142.281 123.461 156.966 126.172C151.963 145.911 148.139 167.141 145.595 189.357C127.177 202.699 110.248 216.699 95.2092 231.007C92.5648 227.886 89.9908 224.706 87.4892 221.47C61.7662 188.117 52.6652 159.199 62.5192 142.131ZM112.373 388.135C84.9512 388.133 65.5692 381.174 58.0382 368.131C48.1842 351.063 57.2852 322.145 83.0072 288.792C86.7807 283.91 90.7139 279.154 94.8002 274.531C109.669 289.149 126.546 303.488 144.998 317.18C147.427 340.446 151.241 362.701 156.34 383.357C140.151 386.568 125.356 388.136 112.373 388.135ZM256 482C233.88 482 210.359 453.31 193.827 404.959C214.013 399.091 234.915 391.364 256 381.972C277.085 391.364 297.987 399.091 318.173 404.959C301.641 453.31 278.12 482 256 482ZM453.962 368.131C442.866 387.351 406.054 393.352 355.659 383.357C360.759 362.701 364.572 340.446 367.001 317.18C385.454 303.488 402.331 289.149 417.199 274.531C421.285 279.154 425.218 283.911 428.992 288.792C454.716 322.145 463.817 351.063 453.962 368.131Z" fill="#FC3314"/>
<path d="M256 302.35C281.599 302.35 302.35 281.598 302.35 256C302.35 230.402 281.599 209.65 256 209.65C230.402 209.65 209.65 230.402 209.65 256C209.65 281.598 230.402 302.35 256 302.35Z" fill="#FC3314"/>
</svg>
