<svg width="512" height="512" viewBox="0 0 512 512" fill="none" xmlns="http://www.w3.org/2000/svg">
<path d="M315.578 32.0044C540.661 182.209 467.671 347.262 467.671 347.262C467.671 347.262 531.606 418.013 505.91 479.996C505.91 479.996 479.383 436.7 435.351 436.7C392.792 436.7 367.609 479.996 281.691 479.996C90.5902 479.996 0 323.391 0 323.391C172.221 434.749 289.882 355.838 289.882 355.838C212.124 311.743 47.1991 100.579 47.1991 100.579C190.972 220.609 253.019 252.128 253.019 252.128C215.708 222.177 111.742 75.3955 111.742 75.3955C194.94 157.922 360.313 272.992 360.313 272.992C407.736 145.826 315.578 32.0044 315.578 32.0044Z" fill="#FF4444"/>
</svg>
