<svg width="512" height="512" viewBox="0 0 512 512" fill="none" xmlns="http://www.w3.org/2000/svg">
<path d="M447.174 66.5828H441.1C452.679 47.7301 448.403 22.4196 429.819 8.63089C409.794 -6.22482 381.338 -1.44292 367.363 19.4407L335.818 66.5838H64.8259C42.5513 66.5838 24.4297 84.7054 24.4297 106.98V365.249C24.4297 387.523 42.5513 405.645 64.8259 405.645H221.737L209.881 455.441H184.293C167.616 455.441 154.048 469.008 154.048 485.685V491.999H122.504C116.981 491.999 112.504 496.477 112.504 501.999C112.504 507.521 116.981 511.999 122.504 511.999H389.498C395.02 511.999 399.497 507.521 399.497 501.999C399.497 496.477 395.02 491.999 389.498 491.999H357.953V485.685C357.953 469.008 344.385 455.441 327.709 455.441H302.12L290.264 405.645H447.175C469.45 405.645 487.572 387.523 487.572 365.249V106.979C487.572 84.7044 469.45 66.5828 447.174 66.5828ZM303.895 242.378C288.261 253.323 258.97 238.446 230.999 253.372C224.174 217.918 228.477 184.573 264.001 177.214C268.592 176.257 273.535 175.824 277.743 175.908L313.918 202.748C319.167 218.016 317.197 233.068 303.895 242.378ZM313.973 135.192L342.279 156.194L320.511 182.734L294.883 163.72L313.973 135.192ZM383.986 30.5635C391.56 19.2427 407.006 16.6087 417.902 24.6936C428.802 32.7794 430.754 48.3251 422.117 58.8559L354.976 140.713L325.107 118.552L383.986 30.5635ZM337.953 485.685V491.999H174.048V485.685C174.048 480.037 178.644 475.441 184.293 475.441H327.708C333.357 475.441 337.953 480.037 337.953 485.685ZM281.561 455.441H230.44L242.295 405.645H269.705L281.561 455.441ZM467.572 365.249C467.572 376.496 458.422 385.646 447.175 385.646H64.8269C53.5801 385.646 44.4303 376.496 44.4303 365.249V318.42H73.0057C78.5286 318.42 83.0055 313.942 83.0055 308.42C83.0055 302.898 78.5286 298.42 73.0057 298.42H44.4283V106.979C44.4283 95.7322 53.5781 86.5824 64.8249 86.5824H322.435L276.054 155.895C256.457 156.072 236.893 162.899 224.085 177.851C206.656 198.195 203.594 230.163 214.984 272.864C216.931 280.166 226.042 282.782 231.555 277.516C257.411 252.809 289.615 279.759 318.453 256.417C336.057 242.167 340.223 219.514 333.585 198.33L425.241 86.5824H447.173C458.42 86.5824 467.57 95.7322 467.57 106.979V298.419H153.002C147.479 298.419 143.002 302.897 143.002 308.419C143.002 313.941 147.479 318.419 153.002 318.419H467.572V365.249Z" fill="#E50303"/>
<path d="M111.073 298.613C108.804 299.065 106.762 300.289 105.296 302.079C103.83 303.868 103.03 306.111 103.033 308.424C103.033 314.679 108.752 319.469 114.983 318.224C117.583 317.705 119.871 316.175 121.343 313.97C122.815 311.764 123.351 309.065 122.833 306.464C121.72 300.994 116.414 297.538 111.073 298.613Z" fill="#E50303"/>
</svg>
